HIERARCHY
ROOT hips
{
  OFFSET 0 10.6860622 2.3727825e-15
  CHANNELS 6 Xposition Yposition Zposition Yrotation Xrotation Zrotation
  JOINT leftUpperLeg
  {
    OFFSET 0.6642549969 -0.9402397400000004 0
    CHANNELS 3 Yrotation Xrotation Zrotation
    JOINT leftLowerLeg
    {
      OFFSET 0 -3.997221335632195 0
      CHANNELS 3 Yrotation Xrotation Zrotation
      JOINT leftFoot
      {
        OFFSET -0.13777839790000004 -4.6145792000000005 -0.22186036399999998
        CHANNELS 3 Yrotation Xrotation Zrotation
        JOINT leftToes
        {
          OFFSET -0.03777410834999995 -0.9130806927000008 0.85230013
          CHANNELS 3 Yrotation Xrotation Zrotation
          End Site
          {
            OFFSET -0.03777410834999995 -0.9130806927000008 0.85230013
          }
        }
      }
    }
  }
  JOINT rightUpperLeg
  {
    OFFSET -0.6642778626 -0.9402397400000004 0
    CHANNELS 3 Yrotation Xrotation Zrotation
    JOINT rightLowerLeg
    {
      OFFSET 0 -3.997221452859387 0
      CHANNELS 3 Yrotation Xrotation Zrotation
      JOINT rightFoot
      {
        OFFSET 0.1377926176 -4.6145792000000005 -0.22185782299999995
        CHANNELS 3 Yrotation Xrotation Zrotation
        JOINT rightToes
        {
          OFFSET 0.037780746850000047 -0.9130806927000008 0.85230167
          CHANNELS 3 Yrotation Xrotation Zrotation
          End Site
          {
            OFFSET 0.037780746850000047 -0.9130806927000008 0.85230167
          }
        }
      }
    }
  }
  JOINT spine
  {
    OFFSET 0 0.13988381660000015 0
    CHANNELS 3 Yrotation Xrotation Zrotation
    JOINT chest
    {
      OFFSET 0 0.6191039003973773 0
      CHANNELS 3 Yrotation Xrotation Zrotation
      JOINT upperChest
      {
        OFFSET 0 0.9855186130586943 0
        CHANNELS 3 Yrotation Xrotation Zrotation
        JOINT leftShoulder
        {
          OFFSET 0.1807663869 1.5087829790000005 0
          CHANNELS 3 Yrotation Xrotation Zrotation
          JOINT leftUpperArm
          {
            OFFSET 0.5985063006419806 0 0
            CHANNELS 3 Yrotation Xrotation Zrotation
            JOINT leftLowerArm
            {
              OFFSET 2.2993332369501065 0 0
              CHANNELS 3 Yrotation Xrotation Zrotation
              JOINT leftHand
              {
                OFFSET 2.395047042602395 0 0
                CHANNELS 3 Yrotation Xrotation Zrotation
                JOINT leftIndexProximal
                {
                  OFFSET 0.5766295810000004 0.04556643899499946 0.17265095988184
                  CHANNELS 3 Yrotation Xrotation Zrotation
                  JOINT leftIndexIntermediate
                  {
                    OFFSET 0.2957229000000008 -0.019352197700001517 -0.007932640616999987
                    CHANNELS 3 Yrotation Xrotation Zrotation
                    JOINT leftIndexDistal
                    {
                      OFFSET 0.19008243099999922 -0.012484908149998475 -0.002786250786000012
                      CHANNELS 3 Yrotation Xrotation Zrotation
                      End Site
                      {
                        OFFSET 0.19008243099999922 -0.012484908149998475 -0.002786250786000012
                      }
                    }
                  }
                }
                JOINT leftMiddleProximal
                {
                  OFFSET 0.5834975091000001 0.0524350405149987 0.02204081888183999
                  CHANNELS 3 Yrotation Xrotation Zrotation
                  JOINT leftMiddleIntermediate
                  {
                    OFFSET 0.33880573540000003 -0.019871473270000717 -0.00000971183179999946
                    CHANNELS 3 Yrotation Xrotation Zrotation
                    JOINT leftMiddleDistal
                    {
                      OFFSET 0.20676022730000088 -0.012221336379999448 0.0001471936708000235
                      CHANNELS 3 Yrotation Xrotation Zrotation
                      End Site
                      {
                        OFFSET 0.20676022730000088 -0.012221336379999448 0.0001471936708000235
                      }
                    }
                  }
                }
                JOINT leftLittleProximal
                {
                  OFFSET 0.5344154683999995 -0.012880921405001189 -0.24414037221816004
                  CHANNELS 3 Yrotation Xrotation Zrotation
                  JOINT leftLittleIntermediate
                  {
                    OFFSET 0.21758961730000093 -0.011650919939999227 0.011893592810000034
                    CHANNELS 3 Yrotation Xrotation Zrotation
                    JOINT leftLittleDistal
                    {
                      OFFSET 0.1475273964999999 -0.008152365682999818 0.006001092492999946
                      CHANNELS 3 Yrotation Xrotation Zrotation
                      End Site
                      {
                        OFFSET 0.1475273964999999 -0.008152365682999818 0.006001092492999946
                      }
                    }
                  }
                }
                JOINT leftRingProximal
                {
                  OFFSET 0.5799399463000003 0.026911854694997794 -0.12150566991816003
                  CHANNELS 3 Yrotation Xrotation Zrotation
                  JOINT leftRingIntermediate
                  {
                    OFFSET 0.26167887460000006 -0.013480186499999602 0.010996293000000053
                    CHANNELS 3 Yrotation Xrotation Zrotation
                    JOINT leftRingDistal
                    {
                      OFFSET 0.17667108799999987 -0.008990287899999228 0.0055541023999999065
                      CHANNELS 3 Yrotation Xrotation Zrotation
                      End Site
                      {
                        OFFSET 0.17667108799999987 -0.008990287899999228 0.0055541023999999065
                      }
                    }
                  }
                }
                JOINT leftThumbProximal
                {
                  OFFSET 0.11018806699999972 -0.09448718900500053 0.17047963138184
                  CHANNELS 3 Yrotation Xrotation Zrotation
                  JOINT leftThumbIntermediate
                  {
                    OFFSET 0.31062601459999983 -0.08126270900000132 0.15443142000000007
                    CHANNELS 3 Yrotation Xrotation Zrotation
                    JOINT leftThumbDistal
                    {
                      OFFSET 0.21627175790000086 -0.08833193599999878 0.018771167799999988
                      CHANNELS 3 Yrotation Xrotation Zrotation
                      End Site
                      {
                        OFFSET 0.21627175790000086 -0.08833193599999878 0.018771167799999988
                      }
                    }
                  }
                }
              }
            }
          }
        }
        JOINT neck
        {
          OFFSET 0 1.5463305265074576 0
          CHANNELS 3 Yrotation Xrotation Zrotation
          JOINT head
          {
            OFFSET 0 0.8456443600000344 0
            CHANNELS 3 Yrotation Xrotation Zrotation
            JOINT leftEye
            {
              OFFSET 0.30408573140000006 0.5104519199999995 0.1276382305
              CHANNELS 3 Yrotation Xrotation Zrotation
              End Site
              {
                OFFSET 0.30408573140000006 0.5104519199999995 0.1276382305
              }
            }
            JOINT rightEye
            {
              OFFSET -0.30409491089999996 0.5104519199999995 0.1276379445
              CHANNELS 3 Yrotation Xrotation Zrotation
              End Site
              {
                OFFSET -0.30409491089999996 0.5104519199999995 0.1276379445
              }
            }
            JOINT jaw
            {
              OFFSET -3.155239131000001e-7 -0.11984121820000082 0.60178107
              CHANNELS 3 Yrotation Xrotation Zrotation
              End Site
              {
                OFFSET -3.155239131000001e-7 -0.11984121820000082 0.60178107
              }
            }
          }
        }
        JOINT rightShoulder
        {
          OFFSET -0.1807303465 1.5087829790000005 0
          CHANNELS 3 Yrotation Xrotation Zrotation
          JOINT rightUpperArm
          {
            OFFSET -0.5985063796536958 0 0
            CHANNELS 3 Yrotation Xrotation Zrotation
            JOINT rightLowerArm
            {
              OFFSET -2.2993322059002854 0 0
              CHANNELS 3 Yrotation Xrotation Zrotation
              JOINT rightHand
              {
                OFFSET -2.395045314457259 0 0
                CHANNELS 3 Yrotation Xrotation Zrotation
                JOINT rightIndexProximal
                {
                  OFFSET -0.5764487688300002 0.0441371204405987 0.17361932004999997
                  CHANNELS 3 Yrotation Xrotation Zrotation
                  JOINT rightIndexIntermediate
                  {
                    OFFSET -0.29573011380000047 -0.01934826376999843 -0.007698921482999974
                    CHANNELS 3 Yrotation Xrotation Zrotation
                    JOINT rightIndexDistal
                    {
                      OFFSET -0.19008373999999884 -0.012503266380000655 -0.0026365778999999897
                      CHANNELS 3 Yrotation Xrotation Zrotation
                      End Site
                      {
                        OFFSET -0.19008373999999884 -0.012503266380000655 -0.0026365778999999897
                      }
                    }
                  }
                }
                JOINT rightMiddleProximal
                {
                  OFFSET -0.5834852037300005 0.05211639405060153 0.02307162440000001
                  CHANNELS 3 Yrotation Xrotation Zrotation
                  JOINT rightMiddleIntermediate
                  {
                    OFFSET -0.33880114510000003 -0.019952774050000954 0.0002455003561999819
                    CHANNELS 3 Yrotation Xrotation Zrotation
                    JOINT rightMiddleDistal
                    {
                      OFFSET -0.20675694929999955 -0.012273788999999091 0.00030209124000002766
                      CHANNELS 3 Yrotation Xrotation Zrotation
                      End Site
                      {
                        OFFSET -0.20675694929999955 -0.012273788999999091 0.00030209124000002766
                      }
                    }
                  }
                }
                JOINT rightLittleProximal
                {
                  OFFSET -0.5346811737299992 -0.011214256288399227 -0.24363941305000003
                  CHANNELS 3 Yrotation Xrotation Zrotation
                  JOINT rightLittleIntermediate
                  {
                    OFFSET -0.21757715980000092 -0.011771559690000988 0.01201554387
                    CHANNELS 3 Yrotation Xrotation Zrotation
                    JOINT rightLittleDistal
                    {
                      OFFSET -0.1475201849000004 -0.00822055339600003 0.006082065407000015
                      CHANNELS 3 Yrotation Xrotation Zrotation
                      End Site
                      {
                        OFFSET -0.1475201849000004 -0.00822055339600003 0.006082065407000015
                      }
                    }
                  }
                }
                JOINT rightRingProximal
                {
                  OFFSET -0.5800810755299999 0.027657985680600072 -0.12066365025000003
                  CHANNELS 3 Yrotation Xrotation Zrotation
                  JOINT rightRingIntermediate
                  {
                    OFFSET -0.26166445029999974 -0.013623118409999302 0.011164098990000045
                    CHANNELS 3 Yrotation Xrotation Zrotation
                    JOINT rightRingDistal
                    {
                      OFFSET -0.17666387530000027 -0.009072900100000503 0.005668185599999959
                      CHANNELS 3 Yrotation Xrotation Zrotation
                      End Site
                      {
                        OFFSET -0.17666387530000027 -0.009072900100000503 0.005668185599999959
                      }
                    }
                  }
                }
                JOINT rightThumbProximal
                {
                  OFFSET -0.10997596379000074 -0.09577489355940072 0.16989765924999997
                  CHANNELS 3 Yrotation Xrotation Zrotation
                  JOINT rightThumbIntermediate
                  {
                    OFFSET -0.31036620999999986 -0.08229339117999834 0.15440884469999996
                    CHANNELS 3 Yrotation Xrotation Zrotation
                    JOINT rightThumbDistal
                    {
                      OFFSET -0.21631306399999906 -0.08825326400000111 0.018656797720000014
                      CHANNELS 3 Yrotation Xrotation Zrotation
                      End Site
                      {
                        OFFSET -0.21631306399999906 -0.08825326400000111 0.018656797720000014
                      }
                    }
                  }
                }
              }
            }
          }
        }
      }
    }
  }
}
MOTION
Frames: 8
Frame Time: 0.03333333333333333
-0.35552474861650935 -9.163852052123573 2.261014327241069 -180 -17.700624349179147 -2.2394017855257148e-15 156.7299246713935 -46.38889475865295 -95.30201716862418 164.01221501427156 67.46159977033183 167.92582459833216 -23.233071471215773 41.20275809025069 -37.5435533552412 0 0 0 -143.46083210993612 -44.66393428334605 90.16742273126225 -164.89129228973147 65.74892951199446 -168.7230509450121 14.883476666073602 32.66837712255054 34.68715445841051 0 0 0 -0.29179098405472875 -8.218328173846695 -0.053543321489230036 0.6200316023754333 25.86616758187077 -1.9711167039096706 0 0 0 28.61333099651758 -27.76463639182696 -28.959245628717245 -9.143052441515183 -0.22241606396881816 -44.46564769176465 -62.218423832076446 -16.34615237372064 -70.84089222746206 23.755515027068167 21.07444002600321 33.10334430749353 0 0 0 0 0 0 0 0 0 0 0 0 0 0 0 0 0 0 0 0 0 0 0 0 0 0 0 0 0 0 0 0 0 0 0 0 0 0 0 0 0 0 0 0 0 0 1.4092016671840577 0 -0.00003900003515411864 -0.09027396725921952 0.049957061837769254 0 0 0 0 0 0 0 0 0 -27.974697730244046 -32.514239932765804 18.222696571590156 9.104766038913404 -0.5280872877911625 41.44891586384407 56.658458158964194 -3.7489217625295486 62.55868443530113 5.245829331155718 10.569113268122202 -15.999480499843708 0 0 0 0 0 0 0 0 0 0 0 0 0 0 0 0 0 0 0 0 0 0 0 0 0 0 0 0 0 0 0 0 0 0 0 0 0 0 0 0 0 0 0 0 0
-0.35552474861650935 -9.163852052123573 2.271978151523922 -180 -17.400295383445286 -2.198943214381822e-15 156.76577536103937 -46.083844787451326 -95.49714467892433 164.01221501427156 67.46159977033183 167.92582459833216 -23.16334759552155 41.27568658897229 -37.582814155370066 0 0 0 -143.5855624983539 -44.38078329547911 90.44257701294815 -164.89129228973147 65.74892951199446 -168.7230509450121 14.883476666073602 32.66837712255054 34.68715445841051 0 0 0 -0.29192361893824254 -8.468450446981848 -0.05229424754622386 0.6239495773991486 26.59492826309188 -1.9622376617765283 0 0 0 28.59401735372155 -28.191311510946534 -29.01302541135328 -9.143052441515183 -0.22241606396881816 -44.46564769176465 -62.29117201209463 -16.537386928638018 -70.94636303802275 23.705325431675103 21.094065650940024 33.35405919018173 0 0 0 0 0 0 0 0 0 0 0 0 0 0 0 0 0 0 0 0 0 0 0 0 0 0 0 0 0 0 0 0 0 0 0 0 0 0 0 0 0 0 0 0 0 0 1.4097926573653825 0 -0.00003900003515411864 -0.08982296744369453 0.04970706269370159 0 0 0 0 0 0 0 0 0 -27.922565516034958 -32.90465703429091 18.061943753477916 9.135053702053032 -0.5612381487560858 41.56956360896137 56.735806742906966 -3.8972762283029163 62.667227395219676 5.45580331793593 10.52686497209116 -16.334679732507347 0 0 0 0 0 0 0 0 0 0 0 0 0 0 0 0 0 0 0 0 0 0 0 0 0 0 0 0 0 0 0 0 0 0 0 0 0 0 0 0 0 0 0 0 0
-0.35552474861650935 -9.163852052123573 2.2829425125913185 -180 -17.09997481311056 -2.1586181795297844e-15 156.80002196957696 -45.77865565464452 -95.6909560313562 164.01221501427156 67.46159977033183 167.92582459833216 -23.093618711178127 41.34865116728894 -37.62200903806407 0 0 0 -143.70782841351846 -44.09718332074677 90.71555798179043 -164.89129228973147 65.74892951199446 -168.7230509450121 14.883476666073602 32.66837712255054 34.68715445841051 0 0 0 -0.29206097269554426 -8.71856696565165 -0.05104407636835147 0.6280186938331982 27.323572025680114 -1.9532474930776307 0 0 0 28.575060452782612 -28.61797314765459 -29.066843184335443 -9.143052441515183 -0.22241606396881816 -44.46564769176465 -62.36359787291952 -16.72874522103585 -71.05170056988689 23.65521931000858 21.113891555798503 33.604783970933354 0 0 0 0 0 0 0 0 0 0 0 0 0 0 0 0 0 0 0 0 0 0 0 0 0 0 0 0 0 0 0 0 0 0 0 0 0 0 0 0 0 0 0 0 0 0 1.410384608483157 0 -0.00003900003282953263 -0.08937096711652606 0.04945706021268504 0 0 0 0 0 0 0 0 0 -27.868900575473443 -33.29491552457528 17.900059740825718 9.16527101938433 -0.5944505658962546 41.69019142582589 56.81286536654021 -4.045775838804307 62.775577062426784 5.6659829158008606 10.485830230783652 -16.669967628491847 0 0 0 0 0 0 0 0 0 0 0 0 0 0 0 0 0 0 0 0 0 0 0 0 0 0 0 0 0 0 0 0 0 0 0 0 0 0 0 0 0 0 0 0 0
-0.35552474861650935 -9.163852052123573 2.293906605266443 -180 -16.799665068119666 -2.1184247624137354e-15 156.8325994503022 -45.47341845198396 -95.88343912118933 164.01221501427156 67.46159977033183 167.92582459833216 -23.023883009403356 41.42166117368565 -37.66113557892291 0 0 0 -143.8275860549619 -43.81323329239477 90.98635979174098 -164.89129228973147 65.74892951199446 -168.7230509450121 14.883476666073602 32.66837712255054 34.68715445841051 0 0 0 -0.2922050965346236 -8.96867730352551 -0.04979262960130252 0.6322440254302821 28.052037587775196 -1.9441393550316493 0 0 0 28.556511969000375 -29.044625410928038 -29.12073102401329 -9.143052441515183 -0.22241606396881816 -44.46564769176465 -62.43575252183168 -16.92024046843776 -71.15685028646521 23.605222638350206 21.133925145923858 33.855533739277575 0 0 0 0 0 0 0 0 0 0 0 0 0 0 0 0 0 0 0 0 0 0 0 0 0 0 0 0 0 0 0 0 0 0 0 0 0 0 0 0 0 0 0 0 0 0 1.4109766665055807 0 -0.000038000030234039036 -0.08891996731211614 0.049208058648673225 0 0 0 0 0 0 0 0 0 -27.813659932776428 -33.68501098340266 17.73701098024679 9.195419174591786 -0.627727593202425 41.810802524363716 56.88968123938791 -4.194417817927493 62.883754366433976 5.876360275960044 10.446005935181207 -17.00533380204969 0 0 0 0 0 0 0 0 0 0 0 0 0 0 0 0 0 0 0 0 0 0 0 0 0 0 0 0 0 0 0 0 0 0 0 0 0 0 0 0 0 0 0 0 0
-0.35552474861650935 -9.163852052123573 2.3048706979415674 -180 -16.499370332191578 -2.0783602069378132e-15 156.8634396912693 -45.16823677531507 -96.07458986325851 164.01221501427156 67.46159977033183 167.92582459833216 -22.954127410364293 41.49468952358223 -37.70017515401632 0 0 0 -143.9449444843019 -43.52887945501067 91.25506159860734 -164.89129228973147 65.74892951199446 -168.7230509450121 14.883476666073602 32.66837712255054 34.68715445841051 0 0 0 -0.2923540405073778 -9.218775839554668 -0.04853900567407811 0.6366296195720489 28.780268869397023 -1.9349104310671006 0 0 0 28.53833210099669 -29.47123118888294 -29.17466717256631 -9.143052441515183 -0.22241606396881816 -44.46564769176465 -62.507591674958306 -17.11183413640442 -71.26190227741534 23.55529599066795 21.154162846093357 34.10626568886248 0 0 0 0 0 0 0 0 0 0 0 0 0 0 0 0 0 0 0 0 0 0 0 0 0 0 0 0 0 0 0 0 0 0 0 0 0 0 0 0 0 0 0 0 0 0 1.4115676571376792 0 -0.000038000030234039036 -0.08846896751321566 0.04895805951386461 0 0 0 0 0 0 0 0 0 -27.75684394864284 -34.07494290723842 17.572789099685487 9.22549652008587 -0.6610678556260271 41.93139729651731 56.966212178393114 -4.343200249398821 62.991744994159525 6.086918991329237 10.407400280410435 -17.340769846264145 0 0 0 0 0 0 0 0 0 0 0 0 0 0 0 0 0 0 0 0 0 0 0 0 0 0 0 0 0 0 0 0 0 0 0 0 0 0 0 0 0 0 0 0 0
-0.35552474861650935 -9.163852052123573 2.3158350590089634 -180 -16.199107199103953 -2.038424149311663e-15 156.89276273563624 -44.86291805510304 -96.26451226015745 164.01221501427156 67.46159977033183 167.92582459833216 -22.884362320633077 41.56775922082182 -37.7391434833925 0 0 0 -144.05987770705497 -43.2441861883907 91.52165583483493 -164.89129228973147 65.74892951199446 -168.7230509450121 14.883476666073602 32.66837712255054 34.68715445841051 0 0 0 -0.2925087782095139 -9.468863857075853 -0.0472841016706679 0.6411785934921932 29.508205250580996 -1.925556917621375 0 0 0 28.520546995811124 -29.89779596944636 -29.228671363481652 -9.143052441515183 -0.22241606396881816 -44.46564769176465 -62.579137645532995 -17.30356086609383 -71.36676806876255 23.505456954463916 21.17459741777292 34.35699485864935 0 0 0 0 0 0 0 0 0 0 0 0 0 0 0 0 0 0 0 0 0 0 0 0 0 0 0 0 0 0 0 0 0 0 0 0 0 0 0 0 0 0 0 0 0 0 1.41215960870715 0 -0.00003700003089543728 -0.08801696720262442 0.048708057042135745 0 0 0 0 0 0 0 0 0 -27.69840952410672 -34.46467337633499 17.40734600803819 9.255503936939382 -0.694471205603677 42.051971848445795 57.042495924528495 -4.492118651836026 63.09957749279476 6.297649914747741 10.370011927757515 -17.67625704495258 0 0 0 0 0 0 0 0 0 0 0 0 0 0 0 0 0 0 0 0 0 0 0 0 0 0 0 0 0 0 0 0 0 0 0 0 0 0 0 0 0 0 0 0 0
-0.35552474861650935 -9.163852052123573 2.3267988832918167 -180 -15.89886374492112 -1.998611854979107e-15 156.9204901363709 -44.557599648776936 -96.45317782229428 164.01221501427156 67.46159977033183 167.92582459833216 -22.81458147899917 41.64086138527115 -37.77802777710641 0 0 0 -144.1725197178063 -42.9590765985746 91.78624908994344 -164.89129228973147 65.74892951199446 -168.7230509450121 14.883476666073602 32.66837712255054 34.68715445841051 0 0 0 -0.2926692956122664 -9.718937441249816 -0.04602787454279619 0.6458965349159415 30.235777345425156 -1.9160709704048076 0 0 0 28.50314885510236 -30.32430939402911 -29.282747492670502 -9.143052441515183 -0.22241606396881816 -44.46564769176465 -62.65038441545478 -17.4953856243441 -71.47151405744073 23.455726917052466 21.195238102316587 34.60774243462202 0 0 0 0 0 0 0 0 0 0 0 0 0 0 0 0 0 0 0 0 0 0 0 0 0 0 0 0 0 0 0 0 0 0 0 0 0 0 0 0 0 0 0 0 0 0 1.4127505996399805 0 -0.00003700003089543728 -0.08756596741467104 0.04845805790360828 0 0 0 0 0 0 0 0 0 -27.63834091283297 -34.854213567427735 17.240671287175616 9.28543893531415 -0.7279352009968965 42.17251947446885 57.118481776865245 -4.641171543740375 63.20720076957176 6.508539171860304 10.333844763723734 -18.011789295936637 0 0 0 0 0 0 0 0 0 0 0 0 0 0 0 0 0 0 0 0 0 0 0 0 0 0 0 0 0 0 0 0 0 0 0 0 0 0 0 0 0 0 0 0 0
-0.35552474861650935 -9.163852052123573 2.3377632443592122 -180 -15.598656474313035 -1.9589231252592356e-15 156.94669517666816 -44.25221573505969 -96.64066067448738 164.01221501427156 67.46159977033183 167.92582459833216 -22.74479448597135 41.71400082162932 -37.81684547095521 0 0 0 -144.2827812125822 -42.673684154233115 92.04878628956821 -164.89129228973147 65.74892951199446 -168.7230509450121 14.883476666073602 32.66837712255054 34.68715445841051 0 0 0 -0.2928345852872992 -9.968994394420896 -0.044770381805523785 0.6507870002962124 30.962950367807593 -1.9064502596330486 0 0 0 28.48614607580598 -30.750744910672147 -29.336899720686322 -9.143052441515183 -0.22241606396881816 -44.46564769176465 -62.72133345901023 -17.687346719156498 -71.57607760327915 23.40608258777171 21.21607766197402 34.858475663401016 0 0 0 0 0 0 0 0 0 0 0 0 0 0 0 0 0 0 0 0 0 0 0 0 0 0 0 0 0 0 0 0 0 0 0 0 0 0 0 0 0 0 0 0 0 0 1.4133426582649817 0 -0.00003700002869006109 -0.08711396711499506 0.0482090564065828 0 0 0 0 0 0 0 0 0 -27.57661191564086 -35.243532915569155 17.072732250728027 9.315305766839446 -0.7614632165709109 42.293064961240205 57.1942225545329 -4.790364301860097 63.31465871160774 6.719575118933913 10.298899219269918 -18.347350052569276 0 0 0 0 0 0 0 0 0 0 0 0 0 0 0 0 0 0 0 0 0 0 0 0 0 0 0 0 0 0 0 0 0 0 0 0 0 0 0 0 0 0 0 0 0
